<?xml version="1.0" standalone="no"?><!DOCTYPE svg PUBLIC "-//W3C//DTD SVG 1.1//EN" "http://www.w3.org/Graphics/SVG/1.1/DTD/svg11.dtd"><svg t="1502706246404" class="icon" style="" viewBox="0 0 1024 1024" version="1.1" xmlns="http://www.w3.org/2000/svg" p-id="10153" xmlns:xlink="http://www.w3.org/1999/xlink" width="16" height="16"><defs><style type="text/css"></style></defs><path d="M889.6 171.520256l-770.559488 0c-48.640512 0-89.6 40.960256-89.6 92.160256l0 558.079744c0 51.2 40.959488 66.560256 89.6 66.560256l770.559488 0c48.640538 0 89.6-15.360256 89.6-66.560256l0-558.079744c0-51.2-40.959462-92.160256-89.6-92.160256l0 0zm38.4 640.000051c0 17.919437-38.4 25.6-53.759462 25.6l-760.320256 0c-15.361024 0-28.161024-12.8-28.161024-30.720307l0-276.479744 844.800051 0 0 281.600051-2.559565 0 0.000282 0zm0-435.200051l-844.8 0 0-102.400026c0-17.92023 35.840512-51.2 51.2-51.2l742.4 0c15.359462 0 51.2 33.27977 51.2 51.2l0 102.400026 0 0zm-768 256l179.2 0 0 102.400051-179.2 0 0-102.400051 0 0z" p-id="10154" fill="#ffffff"></path></svg>