<?xml version="1.0" standalone="no"?><!DOCTYPE svg PUBLIC "-//W3C//DTD SVG 1.1//EN" "http://www.w3.org/Graphics/SVG/1.1/DTD/svg11.dtd"><svg t="1502705000158" class="icon" style="" viewBox="0 0 1024 1024" version="1.1" xmlns="http://www.w3.org/2000/svg" p-id="4417" xmlns:xlink="http://www.w3.org/1999/xlink" width="16" height="16"><defs><style type="text/css"></style></defs><path d="M960.751616 754.69312l-378.766336-324.75136c15.028224-34.062336 22.976512-71.70048 22.976512-109.039616C604.961792 172.178432 483.972096 51.2 335.248384 51.2c-26.64448 0-52.998144 3.847168-78.321664 11.567104-8.044544 2.39104-14.319616 9.02656-16.34816 17.117184-2.026496 8.188928 0.387072 16.94208 6.339584 22.862848L388.82304 244.713472c5.758976 5.723136 8.880128 13.391872 8.880128 21.629952 0 8.164352-3.15392 15.834112-8.880128 21.556224l-86.55872 86.546432c-10.843136 10.876928-32.370688 10.876928-43.213824 0L117.143552 232.552448c-5.951488-5.91872-14.640128-8.36096-22.878208-6.313984-8.172544 2.072576-14.737408 8.311808-17.148928 16.352256-7.69024 25.280512-11.583488 51.67104-11.583488 78.3104 0 148.749312 120.988672 269.725696 269.71648 269.725696 37.325824 0 74.909696-7.914496 109.0816-22.9632l324.675584 378.745856C783.388672 963.20512 804.016128 972.8 825.576448 972.8c19.787776 0 38.547456-7.84384 52.801536-22.14912l86.591488-86.545408c15.058944-15.14496 22.910976-34.827264 22.107136-55.617536C986.266624 787.647488 976.93696 768.531456 960.751616 754.69312" p-id="4418" fill="#ffffff"></path></svg>