<?xml version="1.0" standalone="no"?><!DOCTYPE svg PUBLIC "-//W3C//DTD SVG 1.1//EN" "http://www.w3.org/Graphics/SVG/1.1/DTD/svg11.dtd"><svg t="1502706038650" class="icon" style="" viewBox="0 0 1024 1024" version="1.1" xmlns="http://www.w3.org/2000/svg" p-id="8765" xmlns:xlink="http://www.w3.org/1999/xlink" width="16" height="16"><defs><style type="text/css"></style></defs><path d="M0 51.2C0 22.923021 22.899552 0 51.254499 0L358.345502 0C386.65258 0 409.6 22.980559 409.6 51.2 409.6 79.476979 386.700448 102.4 358.345502 102.4L51.254499 102.4C22.947421 102.4 0 79.419441 0 51.2ZM614.4 51.2C614.4 22.923021 637.299552 0 665.654498 0L972.745502 0C1001.05258 0 1024 22.980559 1024 51.2 1024 79.476979 1001.100448 102.4 972.745502 102.4L665.654498 102.4C637.34742 102.4 614.4 79.419441 614.4 51.2ZM0 972.8C0 944.523021 22.899552 921.6 51.254499 921.6L358.345502 921.6C386.65258 921.6 409.6 944.580559 409.6 972.8 409.6 1001.076979 386.700448 1024 358.345502 1024L51.254499 1024C22.947421 1024 0 1001.019441 0 972.8ZM614.4 972.8C614.4 944.523021 637.299552 921.6 665.654498 921.6L972.745502 921.6C1001.05258 921.6 1024 944.580559 1024 972.8 1024 1001.076979 1001.100448 1024 972.745502 1024L665.654498 1024C637.34742 1024 614.4 1001.019441 614.4 972.8ZM102.4 512C102.4 483.723021 125.380819 460.8 153.644629 460.8L870.355371 460.8C898.656998 460.8 921.6 483.780559 921.6 512 921.6 540.276979 898.619181 563.2 870.355371 563.2L153.644629 563.2C125.343002 563.2 102.4 540.219441 102.4 512Z" p-id="8766" fill="#ffffff"></path><path d="M51.2 0C79.476979 0 102.4 22.899552 102.4 51.254499L102.4 358.345502C102.4 386.65258 79.419441 409.6 51.2 409.6 22.923021 409.6 0 386.700448 0 358.345502L0 51.254499C0 22.947421 22.980559 0 51.2 0ZM972.8 0C1001.076979 0 1024 22.899552 1024 51.254499L1024 358.345502C1024 386.65258 1001.019441 409.6 972.8 409.6 944.523021 409.6 921.6 386.700448 921.6 358.345502L921.6 51.254499C921.6 22.947421 944.580559 0 972.8 0ZM51.2 614.4C79.476979 614.4 102.4 637.299552 102.4 665.654498L102.4 972.745502C102.4 1001.05258 79.419441 1024 51.2 1024 22.923021 1024 0 1001.100448 0 972.745502L0 665.654498C0 637.34742 22.980559 614.4 51.2 614.4ZM972.8 614.4C1001.076979 614.4 1024 637.299552 1024 665.654498L1024 972.745502C1024 1001.05258 1001.019441 1024 972.8 1024 944.523021 1024 921.6 1001.100448 921.6 972.745502L921.6 665.654498C921.6 637.34742 944.580559 614.4 972.8 614.4Z" p-id="8767" fill="#ffffff"></path></svg>