<?xml version="1.0" standalone="no"?><!DOCTYPE svg PUBLIC "-//W3C//DTD SVG 1.1//EN" "http://www.w3.org/Graphics/SVG/1.1/DTD/svg11.dtd"><svg t="1502353174406" class="icon" style="" viewBox="0 0 1178 1024" version="1.1" xmlns="http://www.w3.org/2000/svg" p-id="3188" xmlns:xlink="http://www.w3.org/1999/xlink" width="18.40625" height="16"><defs><style type="text/css"></style></defs><path d="M767.36037 670.989196C774.58439 662.553496 772.179472 649.301705 763.743732 642.077695 755.311083 634.849077 742.059332 637.258633 734.836863 645.688189 691.464977 693.872967 644.488802 716.764469 578.233145 716.764469 511.975942 716.764469 469.814236 698.693616 421.627886 645.688189 414.399238 637.257046 401.147487 634.847541 392.71638 642.077695 384.283731 649.301705 381.87418 662.553496 389.0982 670.989196 445.720291 734.835322 498.724197 758.927711 578.233145 758.927711 657.739007 758.927711 716.764469 730.017746 767.36037 670.989196L767.36037 670.989196 767.36037 670.989196ZM421.627886 457.763429 421.627886 385.48621C421.627886 366.214419 405.966584 349.34604 385.48619 349.34604 366.214429 349.34604 349.34604 365.005801 349.34604 385.48621L349.34604 457.763429C349.34604 477.0429 365.007337 493.905084 385.48619 493.905084 404.759497 493.905084 421.627886 478.243787 421.627886 457.763429L421.627886 457.763429 421.627886 457.763429ZM1057.679401 381.87418C1003.471496 162.62529 809.523622 0 578.233145 0 346.941122 0 152.993254 162.62529 98.78071 381.872644 40.95616 403.557013 0 467.401603 0 542.091449 0 627.620408 54.206365 698.695152 125.282665 709.537387 125.282665 709.537387 125.282665 710.73981 126.491298 710.73981L207.199619 710.73981C174.676107 649.303292 156.605259 579.435579 156.605259 505.949743 156.605259 266.226637 345.732489 72.278754 578.233145 72.278754 810.726081 72.278754 999.854852 266.226637 999.854852 505.949743 999.854852 667.374094 914.325893 807.115612 786.633677 881.802387 781.813039 880.595305 775.791477 879.39283 769.769921 879.39283 730.01622 879.39283 697.486534 911.916363 697.486534 951.670048 697.486534 991.42527 730.01622 1023.948803 769.769921 1023.948803 809.523622 1023.948803 842.047134 991.42527 842.047134 951.670048 842.047134 945.648513 840.840047 939.626926 839.637588 934.807813 922.757001 880.595305 990.219745 802.2965 1029.974992 709.538923 1101.043572 697.489606 1156.45857 627.621944 1156.45857 542.092985 1156.45857 467.401603 1114.295318 403.557013 1057.679401 381.87418L1057.679401 381.87418 1057.679401 381.87418ZM807.114076 457.763429 807.114076 385.48621C807.114076 366.214419 791.45432 349.34604 770.973926 349.34604 751.700619 349.34604 734.836863 365.005801 734.836863 385.48621L734.836863 457.763429C734.836863 477.0429 750.491986 493.905084 770.973926 493.905084 790.245687 493.905084 807.114076 478.243787 807.114076 457.763429L807.114076 457.763429 807.114076 457.763429Z" p-id="3189"></path></svg>