<?xml version="1.0" standalone="no"?><!DOCTYPE svg PUBLIC "-//W3C//DTD SVG 1.1//EN" "http://www.w3.org/Graphics/SVG/1.1/DTD/svg11.dtd"><svg t="1505638777898" class="icon" style="" viewBox="0 0 1024 1024" version="1.1" xmlns="http://www.w3.org/2000/svg" p-id="1078" xmlns:xlink="http://www.w3.org/1999/xlink" width="16" height="16"><defs><style type="text/css"></style></defs><path d="M1008.725333 400.682667l-1.578666-5.546667s-0.810667-1.578667-0.810667-2.389333l-100.010667-277.845334a32.768 32.768 0 0 0-30.976-21.418666H233.984a33.621333 33.621333 0 0 0-30.976 21.418666L103.808 391.125333c-0.810667 1.621333-0.810667 3.2-1.621333 4.778667l-3.157334 9.514667a23.210667 23.210667 0 0 0-1.578666 7.936 125.952 125.952 0 0 0-4.778667 33.322666c0 60.330667 38.101333 111.914667 92.074667 130.986667v406.442667c0 18.261333 14.293333 32.554667 32.554666 32.554666h688.213334a32.213333 32.213333 0 0 0 32.554666-32.554666v-411.989334c46.848-23.04 79.36-70.656 79.36-125.44 0-9.514667-1.578667-19.84-3.968-30.165333a45.653333 45.653333 0 0 0-4.736-15.829333z m-136.533333 550.869333H249.856v-366.72c1.578667 0 3.968-0.810667 5.546667-0.810667a139.946667 139.946667 0 0 0 84.949333-48.426666c25.386667 30.976 64.298667 50.005333 107.178667 50.005333s81.749333-19.84 107.136-50.005333c25.386667 30.976 64.298667 50.005333 107.178666 50.005333s81.749333-19.84 107.178667-50.005333a133.888 133.888 0 0 0 71.424 45.226666c0.810667 0 1.578667 0.810667 2.389333 0.810667 3.157333 0.810667 6.357333 1.578667 10.325334 2.389333 1.578667 0 3.968 0.810667 5.546666 0.810667 2.389333 0 5.546667 0.810667 7.936 0.810667 1.578667 0 3.968 0.810667 5.546667 0.810666v365.098667z m25.386667-433.408c-0.768 0-0.768 0 0 0-3.968 0.810667-7.125333 1.578667-10.325334 2.389333s-7.125333 0.810667-10.325333 0.810667c-4.778667 0-9.514667-0.810667-14.293333-1.578667-3.968-0.810667-7.936-2.389333-11.093334-3.157333-0.810667 0-0.810667 0-1.578666-0.810667a76.245333 76.245333 0 0 1-46.848-63.488v-1.578666-3.968c0-18.261333-14.293333-32.554667-32.554667-32.554667s-32.554667 14.293333-32.554667 32.554667c0 1.578667 0 3.157333-0.810666 4.778666v0.725334a75.093333 75.093333 0 0 1-46.848 63.488c-0.810667 0-0.810667 0-1.578667 0.810666a64.64 64.64 0 0 1-11.904 3.157334 85.674667 85.674667 0 0 1-14.293333 1.578666c-4.778667 0-9.514667-0.810667-14.293334-1.578666-3.968-0.810667-7.936-2.389333-11.093333-3.157334-0.810667 0-0.810667 0-1.578667-0.810666a76.245333 76.245333 0 0 1-46.848-63.488v-1.578667c0-1.578667-0.810667-2.389333-0.810666-3.968a32.213333 32.213333 0 0 0-32.554667-32.554667 32.213333 32.213333 0 0 0-32.554667 32.554667c0 1.578667 0 3.157333-0.810666 4.778667v0.768a75.093333 75.093333 0 0 1-46.848 63.488c-0.810667 0-0.810667 0-1.578667 0.810666a64.64 64.64 0 0 1-11.904 3.157334c-4.778667 0.810667-9.514667 1.578667-14.293333 1.578666s-9.514667-0.810667-14.293334-1.578666c-3.968-0.810667-7.936-2.389333-11.904-3.157334-0.810667 0-0.810667 0-1.578666-0.810666A76.074667 76.074667 0 0 1 372.906667 452.266667v-1.578667-3.968c0-18.261333-14.293333-32.554667-32.554667-32.554667s-32.554667 14.293333-32.554667 32.554667c0 1.578667 0 3.157333-0.810666 4.778667v0.768a75.093333 75.093333 0 0 1-46.848 63.488c-0.810667 0-0.810667 0-1.578667 0.810666a57.002667 57.002667 0 0 1-11.093333 3.157334 85.674667 85.674667 0 0 1-14.293334 1.578666c-2.389333 0-5.546667-0.810667-7.936-0.810666-0.810667 0-1.578667 0-3.157333-0.810667h-2.389333a75.093333 75.093333 0 0 1-61.909334-73.813333c0-6.357333 0.810667-12.714667 3.157334-20.650667 0-0.810667 0.810667-2.389333 0.810666-3.157333l95.274667-264.32h595.328l92.885333 258.005333s0.810667 1.578667 0.810667 2.389333l1.578667 4.778667c0 0.810667 0.810667 2.389333 0.810666 3.157333 2.389333 7.936 3.157333 14.293333 3.157334 20.650667-0.042667 33.322667-23.04 61.909333-54.016 71.424z" fill="#33a3f4" p-id="1079"></path></svg>